PathFileType	4	(X/Y/Z)	C:\Users\Basilio\Documents\Thesis Gigler\squatting_fais\c3dfiles\038\SJ_pre3\markers_experimental.trc
DataRate	CameraRate	NumFrames	NumMarkers	Units	OrigDataRate	OrigDataStartFrame	OrigNumFrames
200.000000	200.000000	4	61	mm	200.000000	257	2059
Frame#	Time	FHD			LBHD			RBHD			C7			T10			CLAV			LSHO			LUUPA			LMUPA			LDUPA			LLEP			LMEP			LRAD			LUL			LRFIN			RSHO			RUPA1			RMUPA			RDUPA			RLEP			RMEP			RRAD			RUL			RUFIN			LASI			RASI			USACR			LSACR			RSACR			LTHI1			LTHI2			LTHI3			LTHI4			LLFC			LMFC			LTIB1			LTIB2			LTIB3			LTIB4			LLMAL			LMMAL			LHEE			LMT1			LMT2			LMT5			RTHI			RTHI2			RTHI3			RTHI4			RLFC			RMFC			RTIB1			RTIB2			RTIB3			RTIB4			RLMAL			RMMAL			RHEE			RMT1			RMT2			RMT5			
		X1	Y1	Z1	X2	Y2	Z2	X3	Y3	Z3	X4	Y4	Z4	X5	Y5	Z5	X6	Y6	Z6	X7	Y7	Z7	X8	Y8	Z8	X9	Y9	Z9	X10	Y10	Z10	X11	Y11	Z11	X12	Y12	Z12	X13	Y13	Z13	X14	Y14	Z14	X15	Y15	Z15	X16	Y16	Z16	X17	Y17	Z17	X18	Y18	Z18	X19	Y19	Z19	X20	Y20	Z20	X21	Y21	Z21	X22	Y22	Z22	X23	Y23	Z23	X24	Y24	Z24	X25	Y25	Z25	X26	Y26	Z26	X27	Y27	Z27	X28	Y28	Z28	X29	Y29	Z29	X30	Y30	Z30	X31	Y31	Z31	X32	Y32	Z32	X33	Y33	Z33	X34	Y34	Z34	X35	Y35	Z35	X36	Y36	Z36	X37	Y37	Z37	X38	Y38	Z38	X39	Y39	Z39	X40	Y40	Z40	X41	Y41	Z41	X42	Y42	Z42	X43	Y43	Z43	X44	Y44	Z44	X45	Y45	Z45	X46	Y46	Z46	X47	Y47	Z47	X48	Y48	Z48	X49	Y49	Z49	X50	Y50	Z50	X51	Y51	Z51	X52	Y52	Z52	X53	Y53	Z53	X54	Y54	Z54	X55	Y55	Z55	X56	Y56	Z56	X57	Y57	Z57	X58	Y58	Z58	X59	Y59	Z59	X60	Y60	Z60	X61	Y61	Z61	

258	1.285	-266.1625061035157	1757.857543945313	-922.6271972656252	-427.9214477539064	1706.731811523438	-962.5813598632815	-399.8451538085939	1692.346313476563	-819.8114013671877	-454.7348022460939	1512.12841796875	-897.2651367187502	-420.7298278808595	1236.70556640625	-893.8335571289065	-317.4988708496094	1517.188720703125	-909.5076904296877	-421.901824951172	1552.801391601563	-1051.547119140625	-462.6287841796876	1418.157836914063	-1242.914184570313	-442.9938049316407	1453.642456054688	-1272.96142578125	-453.7313537597657	1408.50830078125	-1311.270263671875	-443.9256591796876	1398.89990234375	-1369.709594726563	-391.441131591797	1341.839233398438	-1358.588745117188	-289.7635498046876	1418.753540039063	-1627.658325195313	-343.8438110351563	1371.833740234375	-1644.39892578125	-286.3823852539063	1442.5576171875	-1706.777465820313	-399.6264648437501	1547.5625	-759.4844970703126	-429.3375244140626	1468.22705078125	-559.0997924804689	-389.4620056152345	1476.391845703125	-532.6230468750001	-424.1971435546876	1444.8720703125	-493.3409118652345	-412.3081665039064	1421.899658203125	-424.0184631347657	-381.5230407714844	1350.761840820313	-444.2807006835939	-255.0576629638672	1390.496215820313	-187.6720886230469	-318.8707275390626	1369.299072265625	-160.3812866210938	-245.8955078125001	1410.548095703125	-102.8555450439453	-287.4867553710938	1044.158447265625	-1021.94775390625	-274.9821472167969	1050.82421875	-776.967712402344	-443.928924560547	1109.748657226563	-892.763854980469	-461.9587707519532	1080.945922851563	-919.1856689453127	-456.8023986816407	1080.358276367188	-862.731628417969	-371.2781982421876	731.0330200195314	-1094.490234375	-350.1804504394532	648.1601562500001	-1092.01220703125	-303.3952026367188	647.0722045898439	-1071.5537109375	-383.6928405761719	601.9030151367189	-1073.951049804688	-383.6511840820313	540.5650634765626	-1072.501831054688	-364.0111999511719	517.7087402343751	-955.094177246094	-352.1614379882813	344.9108886718751	-1029.333618164063	-400.6139526367189	312.2980651855469	-1097.847045898438	-364.8959350585938	303.3675231933594	-1071.334350585938	-375.3679504394532	221.5672149658204	-1053.1728515625	-460.7311401367189	86.96239471435548	-1087.499389648438	-418.4310607910157	96.91567230224612	-1017.657348632813	-501.628143310547	43.91687774658204	-1036.326049804688	-290.3810424804688	46.16749572753907	-1051.052490234375	-290.1200866699219	48.70004272460939	-1102.901733398438	-334.2554931640626	29.94549942016602	-1146.539916992188	-367.1080017089844	785.9921875000002	-713.9522094726564	-341.0480346679688	724.6362915039064	-708.0211181640626	-307.7876281738282	720.7418212890626	-710.6155395507814	-381.4506530761719	650.5330810546876	-725.2722778320314	-387.215301513672	512.7433471679689	-731.2444458007814	-377.7480163574219	508.0053710937501	-851.5393066406252	-350.4138183593751	335.5953369140626	-747.7333984375001	-431.389129638672	259.7256164550782	-713.8446044921876	-384.740447998047	260.8180847167969	-721.0625000000001	-373.8926391601563	209.1049194335938	-747.0498046875001	-447.2106018066407	92.0624237060547	-722.5485839843751	-406.3397216796876	93.31161499023439	-795.9350585937502	-492.0655212402345	40.22863769531251	-791.8538818359377	-280.7595825195313	49.10712814331056	-733.8993530273439	-294.1587219238282	53.29514312744142	-689.1631469726564	-344.7453918457032	34.69089508056641	-653.0372924804689	
259	1.29	-266.1755371093751	1757.892456054688	-922.6712036132815	-428.0035705566407	1706.805541992188	-962.5841064453127	-399.8724975585939	1692.630004882813	-820.0515136718752	-454.870330810547	1512.16845703125	-897.2769165039065	-420.8333740234376	1236.722290039063	-893.8990478515627	-317.5664062500001	1517.18310546875	-909.5681152343752	-421.8764953613282	1552.787231445313	-1051.576782226563	-462.5813598632814	1418.1494140625	-1242.981567382813	-442.8998413085939	1453.55859375	-1273.027954101563	-453.5961914062501	1408.460571289063	-1311.288208007813	-443.8260192871095	1398.860107421875	-1369.748168945313	-391.3550720214845	1341.724731445313	-1358.517944335938	-289.4533691406251	1418.634887695313	-1627.558715820313	-343.4815979003907	1371.715454101563	-1644.369995117188	-286.0820007324219	1442.450927734375	-1706.729858398438	-399.651336669922	1547.54052734375	-759.4959106445314	-429.3115234375001	1468.212524414063	-559.1188964843751	-389.4765625000001	1476.37255859375	-532.6367187500001	-424.1745605468751	1444.85986328125	-493.4011535644532	-412.2709045410157	1421.828979492188	-424.0541992187501	-381.5396118164063	1350.715087890625	-444.3958435058595	-254.8910827636719	1390.379516601563	-187.8244781494141	-318.8242797851563	1369.20556640625	-160.4331665039063	-245.772689819336	1410.402954101563	-102.9385223388672	-287.7674865722657	1044.159790039063	-1021.984924316406	-275.1815795898438	1050.881713867188	-776.967468261719	-444.1594238281251	1109.721313476563	-892.7935791015627	-462.1485290527345	1080.940551757813	-919.2705078125002	-456.967254638672	1080.29296875	-862.8367919921877	-371.3778991699219	731.0363159179689	-1094.509765625	-350.2542724609376	648.1765136718751	-1092.027465820313	-303.4429931640626	647.0971069335939	-1071.596313476563	-383.8616638183594	601.9129638671876	-1073.974365234375	-383.7575988769532	540.5612792968751	-1072.539916992188	-364.0844726562501	517.7131958007814	-955.154235839844	-352.1614074707032	344.9293212890626	-1029.35693359375	-400.5916748046876	312.2805175781251	-1097.887573242188	-364.9277038574219	303.4380493164063	-1071.39501953125	-375.3835754394532	221.5395812988282	-1053.192260742188	-460.6839294433595	86.96414947509767	-1087.477783203125	-418.413055419922	96.92871856689456	-1017.680847167969	-501.6423339843751	43.89693450927735	-1036.309326171875	-290.3581542968751	46.16214752197266	-1050.99267578125	-290.1767272949219	48.70151138305665	-1102.884399414063	-334.2903747558594	29.96977996826173	-1146.572265625	-367.2867736816407	786.0044555664065	-713.9906005859376	-341.1621704101563	724.6433105468751	-708.0161132812501	-307.9920959472657	720.8096923828126	-710.6326293945314	-381.6143188476563	650.5288696289064	-725.3095703125001	-387.3218383789064	512.7684326171876	-731.2675170898439	-377.8806152343751	508.0707092285157	-851.6697998046877	-350.4761657714844	335.6140441894532	-747.7471313476564	-431.4208068847657	259.7291564941407	-713.8760375976564	-384.7994995117189	260.8012084960938	-721.0651245117189	-373.9118957519532	209.0977630615235	-747.0491333007814	-447.2393188476564	92.09298706054689	-722.5480346679689	-406.3226928710939	93.30285644531251	-795.9084472656252	-492.016571044922	40.36249923706055	-791.763122558594	-280.7456665039063	49.08232879638673	-733.8813476562501	-294.1716613769532	53.30164718627931	-689.1877441406251	-344.7930297851563	34.65143585205079	-653.0508422851564	
260	1.295	-266.2583312988282	1757.877563476563	-922.6789550781252	-428.0895080566407	1706.806396484375	-962.6375732421877	-399.9129638671876	1692.648559570313	-820.076599121094	-454.8721313476564	1512.223266601563	-897.3378906250002	-420.9890441894532	1236.740844726563	-893.9446411132815	-317.6456909179688	1517.196044921875	-909.592468261719	-421.9195861816407	1552.837646484375	-1051.624145507813	-462.5961914062501	1418.162475585938	-1242.96240234375	-442.7926330566407	1453.50439453125	-1273.038330078125	-453.5798950195314	1408.462524414063	-1311.314331054688	-443.7156677246095	1398.804077148438	-1369.7421875	-391.2344360351564	1341.654907226563	-1358.480102539063	-289.1195678710938	1418.547729492188	-1627.528564453125	-343.2496643066407	1371.652587890625	-1644.319213867188	-285.7462463378907	1442.2998046875	-1706.622680664063	-399.701873779297	1547.514526367188	-759.5139160156251	-429.2883911132814	1468.177368164063	-559.1701049804689	-389.404022216797	1476.334106445313	-532.7041625976564	-424.1626281738282	1444.805541992188	-493.4421386718751	-412.248504638672	1421.783813476563	-424.1106872558595	-381.5372009277344	1350.681274414063	-444.421112060547	-254.7776489257813	1390.230224609375	-187.9923248291016	-318.8092346191407	1369.091064453125	-160.4867858886719	-245.6089935302735	1410.268798828125	-103.0078125	-287.8772277832032	1044.164916992188	-1022.034484863281	-275.3547973632813	1050.845092773438	-777.012390136719	-444.314910888672	1109.759155273438	-892.8801269531252	-462.3474731445314	1080.953979492188	-919.384460449219	-457.1245727539064	1080.338500976563	-862.9041137695315	-371.4895019531251	731.0596923828126	-1094.559936523438	-350.3509216308594	648.1437377929689	-1092.051147460938	-303.5318908691407	647.0456542968751	-1071.63427734375	-383.9021911621094	601.8927001953126	-1074.010009765625	-383.8490295410157	540.5718383789064	-1072.528442382813	-364.2250061035157	517.7568969726564	-955.1377563476565	-352.4521179199219	344.4777832031251	-1029.540893554688	-400.6124267578126	312.3115844726563	-1097.88037109375	-364.9910888671876	303.4790344238282	-1071.375366210938	-375.4059753417969	221.5054626464844	-1053.181518554688	-460.7239074707032	86.95156097412111	-1087.526123046875	-418.4315185546876	96.935905456543	-1017.678771972656	-501.640838623047	43.90254974365235	-1036.312744140625	-290.3363952636719	46.17246246337891	-1051.000366210938	-290.1484985351563	48.7216262817383	-1102.869506835938	-334.2946777343751	29.96563911437989	-1146.566162109375	-367.5334167480469	786.043884277344	-714.0404663085939	-341.2813415527344	724.6664428710939	-708.0357666015626	-308.1347656250001	720.8978271484376	-710.6697387695314	-381.7422790527344	650.5328369140626	-725.3999633789064	-387.4016113281251	512.7728271484376	-731.3074340820314	-378.0031127929688	508.0704650878907	-851.6848754882815	-350.5229187011719	335.6303405761719	-747.7548217773439	-431.4561157226564	259.7162170410157	-713.8834838867189	-384.8345336914064	260.8392333984376	-721.0714111328126	-373.9386291503907	209.1492767333985	-747.0078735351564	-447.2294006347657	92.06934356689455	-722.5520019531251	-406.3194580078126	93.2985076904297	-795.9295654296877	-492.0440063476564	40.35365295410157	-791.8084716796877	-280.7572631835938	49.01100921630861	-733.8911743164064	-294.1968994140626	53.26852798461915	-689.1893310546876	-344.7513427734376	34.66913604736329	-653.0321655273439	
261	1.3	-266.2564697265626	1757.959716796875	-922.6031494140627	-428.0681762695314	1706.797485351563	-962.6397705078127	-399.9784545898439	1692.66943359375	-820.0549316406252	-454.9800415039064	1512.295776367188	-897.4131469726565	-421.1120910644532	1236.747314453125	-894.0234985351565	-317.6705932617188	1517.184204101563	-909.6150512695315	-421.8678588867189	1552.860961914063	-1051.634887695313	-462.4856262207032	1418.155517578125	-1243.015991210938	-442.7755432128907	1453.479858398438	-1273.076538085938	-453.5057067871095	1408.4443359375	-1311.347900390625	-443.5876464843751	1398.741088867188	-1369.807861328125	-391.2073669433595	1341.637329101563	-1358.486694335938	-288.7412719726563	1418.404418945313	-1627.402954101563	-342.9401550292969	1371.557250976563	-1644.278198242188	-285.3662414550782	1442.123168945313	-1706.559814453125	-399.7312927246095	1547.5029296875	-759.5360717773439	-429.2555541992189	1468.2197265625	-559.2161865234376	-389.3916015625001	1476.298461914063	-532.6980590820314	-424.1916503906251	1444.809448242188	-493.468231201172	-412.2190246582032	1421.715698242188	-424.126190185547	-381.5690612792969	1350.632690429688	-444.4917297363282	-254.5861053466797	1390.116333007813	-188.0764465332032	-318.7619934082032	1368.9697265625	-160.5230865478516	-245.5206298828126	1410.171020507813	-103.123893737793	-287.9960632324219	1044.247436523438	-1022.113159179688	-275.6042785644532	1050.861694335938	-777.0465087890627	-444.5206909179689	1109.794921875	-892.933532714844	-462.5238342285157	1080.978271484375	-919.433288574219	-457.2293701171876	1080.326171875	-862.975769042969	-371.5898132324219	731.0400390625001	-1094.535766601563	-350.4714050292969	648.1865234375001	-1092.114624023438	-303.6127319335938	646.9824829101564	-1071.619506835938	-383.9907226562501	601.9138183593751	-1074.012817382813	-383.9429931640626	540.5967407226564	-1072.582763671875	-364.2020263671876	517.7537231445314	-955.1826782226565	-352.2229614257813	345.0255126953126	-1029.372924804688	-400.5564880371095	312.2905883789063	-1097.916137695313	-365.0308532714844	303.4652099609376	-1071.412475585938	-375.4913940429688	221.4954681396485	-1053.23095703125	-460.6677246093751	86.94612121582033	-1087.496826171875	-418.4495239257814	96.93852233886722	-1017.650634765625	-501.6194152832032	43.95130157470704	-1036.320434570313	-290.4007873535157	46.20525741577149	-1050.993530273438	-290.1538085937501	48.69834136962892	-1102.896850585938	-334.3081359863282	30.01678276062012	-1146.543823242188	-367.7162780761719	786.1016845703127	-714.1371459960939	-341.3614501953126	724.6817626953126	-708.0814819335939	-308.2541809082032	720.9100952148439	-710.7083740234376	-381.8777160644532	650.5581665039064	-725.4146118164064	-387.4786071777345	512.7984619140626	-731.3315429687501	-378.0885620117188	508.0732727050782	-851.6898193359377	-350.6118774414063	335.5771789550782	-747.7632446289064	-431.4995727539064	259.7360839843751	-713.8758544921876	-384.9212036132814	260.8635253906251	-721.1452026367189	-374.1736755371094	208.6776885986329	-747.5096435546876	-447.2313537597657	92.05908966064455	-722.5498046875001	-406.3319702148439	93.32847595214845	-795.940856933594	-492.0491333007814	40.31240463256837	-791.8555908203127	-280.7317504882813	49.03822326660158	-733.8995361328126	-294.1846618652344	53.27234268188478	-689.1596679687501	-344.7648925781251	34.67260360717774	-653.0446777343751	
